# xmcd CD database file
#
# Track frame offsets:
#	150
#	14517
#	36447
#	55049
#	74559
#	91044
#	102688
#	124618
#	145338
#	163638
#
# Disc length: 2375 seconds
#
# Revision: 0
# Processed by: cddbd v1.5.1PL0 Copyright (c) Steve Scherf et al.
# Submitted via: CDex 1.51
#
DISCID=8b09450a
DTITLE=Rakira - 3rdアルバム
DYEAR=2004
DGENRE=Instrumental
TTITLE0=天球図
TTITLE1=ヒカリ
TTITLE2=蒼天百景
TTITLE3=遠雷香花
TTITLE4=炎水晶
TTITLE5=爽雨林
TTITLE6=葉光踊
TTITLE7=風宮寺
TTITLE8=澄空
TTITLE9=風の声
EXTD=YEAR: 2004
EXTT0=
EXTT1=
EXTT2=
EXTT3=
EXTT4=
EXTT5=
EXTT6=
EXTT7=
EXTT8=
EXTT9=
PLAYORDER=
